<svg width="98" height="94" viewBox="0 0 98 94" fill="none" xmlns="http://www.w3.org/2000/svg">
<path d="M40.016 22.004H45.344V32.228C43.976 33.26 42.392 34.052 40.592 34.604C38.792 35.156 36.98 35.432 35.156 35.432C32.54 35.432 30.188 34.88 28.1 33.776C26.012 32.648 24.368 31.1 23.168 29.132C21.992 27.14 21.404 24.896 21.404 22.4C21.404 19.904 21.992 17.672 23.168 15.704C24.368 13.712 26.024 12.164 28.136 11.06C30.248 9.932 32.624 9.368 35.264 9.368C37.472 9.368 39.476 9.74 41.276 10.484C43.076 11.228 44.588 12.308 45.812 13.724L42.068 17.18C40.268 15.284 38.096 14.336 35.552 14.336C33.944 14.336 32.516 14.672 31.268 15.344C30.02 16.016 29.048 16.964 28.352 18.188C27.656 19.412 27.308 20.816 27.308 22.4C27.308 23.96 27.656 25.352 28.352 26.576C29.048 27.8 30.008 28.76 31.232 29.456C32.48 30.128 33.896 30.464 35.48 30.464C37.16 30.464 38.672 30.104 40.016 29.384V22.004ZM66.8174 35L61.9574 27.98H61.6694H56.5934V35H50.7614V9.8H61.6694C63.9014 9.8 65.8334 10.172 67.4654 10.916C69.1214 11.66 70.3934 12.716 71.2814 14.084C72.1694 15.452 72.6134 17.072 72.6134 18.944C72.6134 20.816 72.1574 22.436 71.2454 23.804C70.3574 25.148 69.0854 26.18 67.4294 26.9L73.0814 35H66.8174ZM66.7094 18.944C66.7094 17.528 66.2534 16.448 65.3414 15.704C64.4294 14.936 63.0974 14.552 61.3454 14.552H56.5934V23.336H61.3454C63.0974 23.336 64.4294 22.952 65.3414 22.184C66.2534 21.416 66.7094 20.336 66.7094 18.944Z" fill="#AAAAAA"/>
<path d="M12.1275 35.3129C12.1189 35.3385 12.0761 35.4553 12.0332 35.5722C11.9891 35.689 11.934 35.8376 11.9107 35.9008C11.82 36.1443 11.7845 36.2417 11.7233 36.406C11.689 36.4997 11.6473 36.6117 11.6314 36.6555C11.5848 36.7773 11.3754 37.3396 11.2761 37.6111C11.2259 37.745 11.161 37.9203 11.1316 38.0006C11.101 38.0809 11.0385 38.2501 10.9907 38.3779C10.9442 38.5045 10.7898 38.9208 10.6477 39.3031C10.5068 39.6841 10.083 40.8234 9.70813 41.8349C9.33206 42.8452 9.0013 43.7387 8.97068 43.819C8.94005 43.8994 8.91188 43.9785 8.90576 43.9955C8.90086 44.0126 8.85063 44.1465 8.7955 44.2938C8.74038 44.4411 8.67791 44.6103 8.65463 44.6711C8.63258 44.7308 8.5652 44.9146 8.50395 45.0789C8.44271 45.2432 8.36431 45.4538 8.33 45.5475C8.26385 45.7277 8.16708 45.987 7.99313 46.4544C7.89145 46.7258 7.83265 46.8829 7.57173 47.5925C7.50925 47.7593 7.4431 47.9382 7.4235 47.9881C7.40513 48.038 7.2226 48.5286 7.01925 49.0776C6.81713 49.6265 6.64195 50.0976 6.63215 50.1244C6.62113 50.1512 6.37245 50.8194 6.07968 51.6094C5.78568 52.3994 5.52108 53.1115 5.49168 53.1919C5.46105 53.2722 5.4243 53.3732 5.40838 53.417C5.39246 53.4609 5.35448 53.5643 5.32263 53.6483C5.29078 53.7323 5.24423 53.8577 5.2185 53.9283C5.16828 54.0658 5.09478 54.2642 4.96126 54.6221C4.91471 54.7463 4.85713 54.9021 4.83263 54.969C4.80813 55.036 4.75178 55.1869 4.70768 55.3038C4.66358 55.4206 4.61458 55.5521 4.59988 55.5959C4.58396 55.6397 4.54598 55.7432 4.51413 55.8272C4.48228 55.9112 4.41981 56.0804 4.37326 56.2045C4.21768 56.6257 3.97881 57.2696 3.91756 57.434C3.88326 57.524 3.80976 57.7212 3.75463 57.8722C3.64071 58.1789 3.36018 58.936 2.94613 60.051C2.793 60.4625 2.64968 60.8483 2.62763 60.9092C2.60435 60.9689 2.56148 61.0869 2.52963 61.1709C2.499 61.2549 2.45981 61.3584 2.44388 61.4022C2.42795 61.446 2.38998 61.5495 2.35813 61.6335C2.3275 61.7175 2.2687 61.8757 2.22705 61.9865C2.18663 62.0972 2.1266 62.2579 2.09475 62.3456C2.06168 62.432 1.99553 62.6109 1.94775 62.7412C1.85465 62.9919 1.813 63.1027 1.72113 63.3498C1.6905 63.4338 1.6513 63.5372 1.63538 63.5811C1.61945 63.6249 1.58148 63.7284 1.54963 63.8123C1.51901 63.8963 1.4602 64.0521 1.42101 64.1593C1.38181 64.2664 1.32423 64.4197 1.29483 64.5001C1.2642 64.5804 1.20173 64.7496 1.15395 64.8774C1.10741 65.004 0.93223 65.4751 0.76563 65.9243C0.59903 66.3722 0.458155 66.7447 0.45203 66.752C0.431205 66.7727 0.441005 66.8031 0.47408 66.8177C0.49368 66.8262 0.57208 66.8579 0.649255 66.8859C0.72643 66.9151 0.88078 66.9748 0.992255 67.0174C1.10373 67.06 1.34628 67.1537 1.53126 67.2243C1.71623 67.2949 1.94775 67.3837 2.04575 67.4215C2.14375 67.4592 2.32506 67.5286 2.45001 67.5761C2.57495 67.6235 2.7538 67.6917 2.84813 67.7282C2.94246 67.7647 3.11885 67.8317 3.24013 67.8779C3.36141 67.923 3.62846 68.0252 3.83426 68.1031C4.26791 68.2687 4.36101 68.304 4.56926 68.3831C4.65378 68.4148 4.76893 68.4586 4.82651 68.4805C4.88408 68.5024 5.11561 68.59 5.34101 68.6752C5.56641 68.7605 5.85306 68.8688 5.978 68.915C6.41778 69.0818 6.86123 69.2486 7.23975 69.391C7.39165 69.4482 7.6342 69.5395 7.77875 69.5943C8.09603 69.7148 9.26468 70.1518 9.66525 70.3003C9.82328 70.3587 10.3072 70.5389 10.7396 70.6995C11.1732 70.8614 11.5346 70.9941 11.5444 70.9965C11.5701 71.0026 12.0234 70.3794 12.5158 69.6612C13.6918 67.9473 15.0712 65.6455 16.2435 63.4411C16.279 63.3741 16.3231 63.2914 16.3415 63.2585C16.3795 63.1903 16.4812 62.9968 16.785 62.4125C17.1194 61.7722 17.8213 60.3639 18.1239 59.7285C18.1533 59.6676 18.2072 59.5532 18.2464 59.4729C18.2844 59.3925 18.3885 59.1734 18.4755 58.986C18.5637 58.7985 18.658 58.5989 18.6837 58.5417C18.7927 58.3092 19.0941 57.6445 19.2742 57.2392C19.3807 57.0018 19.4738 56.79 19.4836 56.7706C19.54 56.6476 19.9908 55.5959 20.0716 55.4012C20.0876 55.3646 20.1672 55.1723 20.2493 54.9751C20.8042 53.6422 21.2991 52.3568 21.8356 50.8487C22.0304 50.3033 22.4212 49.1202 22.5951 48.5541C22.6196 48.4738 22.6503 48.3752 22.6625 48.335C22.7262 48.1305 22.9296 47.4306 23.0055 47.1531C23.3154 46.0296 23.5004 45.2432 23.7099 44.1538C23.7577 43.9067 23.8655 43.2153 23.8936 42.9791C23.8973 42.9451 23.9059 42.8793 23.912 42.8331C23.9267 42.7211 23.9573 42.4326 23.9671 42.3097C23.972 42.2561 23.9769 42.1928 23.9794 42.1697C24.0284 41.7035 24.0272 40.7601 23.9794 40.356C23.95 40.1101 23.9292 39.9762 23.901 39.835C23.8667 39.6694 23.8655 39.6682 23.8128 39.6232C23.6082 39.4491 22.8487 39.1046 21.7438 38.6859C21.5857 38.6263 21.3922 38.5532 21.315 38.524C21.0247 38.4132 20.2346 38.1272 19.7041 37.9397C19.5963 37.902 19.4334 37.8448 19.3428 37.8119C19.2521 37.7791 19.1198 37.7328 19.0488 37.7085C18.9777 37.6841 18.8736 37.6476 18.816 37.6269C18.5588 37.5368 18.5012 37.5174 18.2709 37.437C18.1361 37.3895 17.9438 37.3238 17.8421 37.2885C17.7417 37.2544 17.6143 37.2106 17.5604 37.1911C17.5065 37.1717 17.4379 37.1485 17.4073 37.1376C17.3534 37.1205 17.0753 37.0244 16.4946 36.8235C16.3403 36.77 16.1994 36.7225 16.1823 36.7164C16.1651 36.7115 16.0389 36.6677 15.9005 36.619C15.7621 36.5716 15.5808 36.5083 15.4963 36.479C15.4117 36.4498 15.2415 36.3914 15.1165 36.3476C14.9916 36.3038 14.7882 36.2319 14.6633 36.1893C14.5383 36.1455 14.3595 36.0822 14.2651 36.0494C14.1708 36.0153 14.0446 35.9714 13.9834 35.9495C13.6245 35.8242 12.6016 35.4432 12.3603 35.3446C12.2561 35.3032 12.1643 35.2679 12.1557 35.2679C12.1483 35.2679 12.1349 35.2886 12.1275 35.3129Z" fill="#AAAAAA"/>
<path d="M53.5203 40.266C53.29 40.2855 53.1699 40.3013 52.9751 40.3378C52.7448 40.3816 52.724 40.3865 52.528 40.4352C51.8481 40.6044 51.0654 40.871 50.2373 41.2142C50.2005 41.23 50.1356 41.2556 50.0952 41.2739C49.9947 41.3152 49.3626 41.5952 49.2328 41.6549C49.1752 41.6816 49.0907 41.7218 49.0429 41.7437C48.7832 41.8642 47.9294 42.2817 47.6219 42.4375C46.9788 42.765 46.5745 42.95 46.2242 43.0778C46.0637 43.1362 45.3985 43.3554 45.2919 43.3858C45.2466 43.398 45.156 43.4247 45.0923 43.4454C44.9538 43.488 44.5055 43.6268 44.3144 43.6852C44.2409 43.7071 44.1306 43.7412 44.0694 43.7583C44.0094 43.7765 43.8268 43.8313 43.6651 43.8812C43.1237 44.0455 43.0049 44.0808 42.8383 44.1307C42.3691 44.2707 41.5643 44.5324 41.1784 44.6688C40.5977 44.8757 40.3503 45.0011 40.0085 45.2628C39.864 45.3736 39.5528 45.6803 39.4303 45.8337C39.004 46.3668 38.7027 47.0497 38.5765 47.7691C38.5177 48.1026 38.4944 48.3424 38.4773 48.7916C38.4675 49.0436 38.4589 49.1409 38.4295 49.3089C38.3744 49.6254 38.2445 50.1281 38.0963 50.5992C37.9909 50.9315 37.9603 51.0277 37.9383 51.0861C37.9248 51.119 37.855 51.3247 37.7815 51.5426C37.6479 51.9357 37.5279 52.2766 37.4421 52.5103C37.4176 52.5772 37.3588 52.7355 37.3135 52.8633C37.267 52.9899 37.2033 53.1627 37.1726 53.2467C37.0661 53.5315 37.0342 53.618 36.9178 53.9345C36.8529 54.1085 36.7806 54.3033 36.7561 54.3666C36.7316 54.4299 36.6839 54.5565 36.652 54.6465C36.6189 54.7366 36.5724 54.8657 36.5467 54.9326C36.5222 54.9995 36.4854 55.1006 36.4658 55.1578C36.4352 55.2454 36.3739 55.4146 36.1804 55.949C36.0836 56.2168 36.0015 56.4578 35.8129 57.0324C35.6205 57.6215 35.4564 58.2411 35.3792 58.6695C35.3033 59.0919 35.2898 59.2173 35.2837 59.5058C35.2788 59.686 35.2824 59.8174 35.291 59.8807C35.3351 60.1802 35.4343 60.3871 35.6242 60.5745C35.9427 60.8922 36.4756 61.1016 37.8586 61.451C38.2886 61.5605 38.5189 61.6189 38.7896 61.6883C38.9379 61.7273 39.129 61.776 39.2147 61.7979C39.456 61.86 39.641 61.8806 39.8897 61.8733C40.0061 61.8697 40.12 61.8636 40.1433 61.86C40.1665 61.8563 40.2082 61.8502 40.2351 61.8466C40.7411 61.7687 41.3401 61.496 41.9134 61.0821C42.3911 60.7352 43.0355 60.1181 43.5255 59.5338C44.7186 58.1133 45.8885 56.1596 46.9016 53.8979C46.9861 53.7105 47.0694 53.5242 47.0878 53.4841C47.1074 53.4439 47.1405 53.3648 47.1625 53.3076C47.1846 53.2504 47.2066 53.2005 47.2115 53.1944C47.2164 53.1895 47.2985 53.1798 47.3965 53.1725C47.8938 53.1384 48.4328 53.0057 49.6186 52.6259C49.9016 52.5358 50.5435 52.352 50.8375 52.2778C50.9012 52.2607 50.9931 52.2364 51.0421 52.223C51.3251 52.1451 51.6619 52.1427 51.9523 52.2181C52.5917 52.3837 53.3206 52.8475 54.4868 53.8286C54.7514 54.0525 55.4447 54.6526 55.6273 54.817C55.691 54.8754 55.8563 55.0202 55.9948 55.1395C56.1332 55.26 56.2483 55.3611 56.252 55.3647C56.2557 55.3684 56.3182 55.4232 56.3917 55.4864C56.4652 55.5497 56.5754 55.6459 56.6379 55.6995C57.3974 56.3604 58.0711 56.9155 58.8013 57.4815C59.5448 58.0585 60.2762 58.5442 61.081 58.997C61.2402 59.0858 61.2451 59.0907 61.3162 59.1893C61.6506 59.6531 62.2925 60.4845 62.9283 61.2745C63.1745 61.5812 63.8225 62.3651 64.217 62.8325C64.8356 63.5665 65.709 64.5732 66.5543 65.5239C66.814 65.816 67.707 66.8069 67.7928 66.8981C67.8234 66.931 67.9643 67.0844 68.1039 67.239C68.2448 67.3923 68.4175 67.5822 68.4898 67.6589C68.5621 67.7356 68.7544 67.9438 68.9185 68.1215C69.0827 68.2992 69.286 68.5171 69.3706 68.6072C69.4551 68.6972 69.531 68.7764 69.5372 68.7837C69.7332 68.9942 70.5 69.8037 70.6629 69.9729C70.745 70.0569 70.9324 70.2517 71.0807 70.405C72.3191 71.6868 73.6789 73.0379 74.6087 73.9107C74.9602 74.2406 75.0105 74.2868 75.2334 74.4877C75.8814 75.0707 76.3947 75.4968 76.7218 75.7208C76.8688 75.8218 77.0231 75.9119 77.0476 75.9119C77.066 75.9119 77.3821 75.7524 77.5854 75.6404C77.6455 75.6076 77.7263 75.5637 77.7631 75.543C78.2923 75.2546 79.2122 74.6362 79.8823 74.1176C80.2706 73.817 81.0105 73.2108 81.0951 73.1244C81.0987 73.1207 81.1722 73.055 81.2604 72.9783C81.5838 72.6935 81.9048 72.3965 82.1706 72.1347L82.3568 71.9509V71.8402C82.3568 71.6564 82.3054 71.1451 82.2576 70.8603C82.1253 70.0642 81.955 69.3168 81.6463 68.1763C81.2457 66.6936 80.5156 64.3967 79.5454 61.5666C79.4266 61.2185 79.3151 60.8947 79.3004 60.8484C79.2845 60.801 79.1987 60.5526 79.1105 60.2946C78.7957 59.378 78.7541 59.2575 78.4931 58.4748C78.3474 58.039 78.2138 57.6337 78.1967 57.574C78.144 57.3951 78.133 57.3586 78.0142 57.0019C77.594 55.7409 76.9901 54.2595 75.9684 51.9808C75.8827 51.7897 75.7994 51.6034 75.7822 51.5669C75.7651 51.5304 75.7308 51.4537 75.705 51.3965C75.6793 51.3393 75.6389 51.2504 75.6144 51.1981C75.5899 51.1457 75.5703 51.1007 75.5703 51.0983C75.5703 51.0958 75.5519 51.0544 75.5286 51.0045C75.4196 50.772 74.9137 49.6522 74.6883 49.1446C74.1517 47.9334 73.3922 47.1873 71.9835 46.4861C71.8549 46.4216 71.7471 46.3693 71.7446 46.3693C71.7409 46.3693 71.6846 46.3437 71.6184 46.3133C71.4469 46.2341 71.442 46.2329 71.2595 46.1562C70.5429 45.8568 69.362 45.4442 68.208 45.0912C68.1174 45.0632 68.0292 45.0364 68.012 45.0303C67.9949 45.0242 67.8246 44.9719 67.6323 44.9146C67.44 44.8562 67.2342 44.7941 67.1729 44.7747C67.0504 44.7369 66.1819 44.4752 65.8744 44.3839C65.6012 44.3036 64.7854 44.0358 64.6372 43.9798C64.6102 43.9688 64.5024 43.9299 64.3983 43.8934C64.1276 43.7984 63.2652 43.4686 63.1672 43.4235C63.1537 43.4174 63.0496 43.3736 62.9344 43.3274C62.5375 43.1679 61.5048 42.7236 61.1582 42.5654C61.1177 42.5471 60.9475 42.4692 60.7784 42.3949C60.4146 42.2318 59.7041 41.9129 59.6085 41.8691C59.5718 41.8521 59.4995 41.8204 59.4493 41.7985C59.399 41.7766 59.2374 41.706 59.0916 41.6415C57.9168 41.1254 56.9515 40.7687 56.1418 40.5496C55.9029 40.4851 55.566 40.4072 55.4129 40.3804C54.8188 40.2757 54.4966 40.2453 54.0054 40.2477C53.8363 40.2489 53.6183 40.2562 53.5203 40.266Z" fill="#AAAAAA"/>
<path d="M25.4506 41.9166C25.4469 41.9324 25.442 42.0127 25.4371 42.0967C25.4335 42.1807 25.4273 42.2793 25.4237 42.3158C25.4114 42.4582 25.3685 42.8964 25.3636 42.9305C25.3514 43.0267 25.344 43.0815 25.3379 43.1314C25.1113 44.9718 24.5478 47.309 23.7136 49.8749C23.0484 51.9211 22.1639 54.2509 21.2133 56.4602C20.9487 57.0749 20.6278 57.8053 20.4881 58.1096C20.4783 58.1291 20.3889 58.3263 20.2885 58.5478C20.1868 58.7681 20.0851 58.9909 20.0618 59.0408C20.0386 59.0907 19.9822 59.2112 19.9369 59.3086C19.7985 59.6044 19.7801 59.6446 19.6208 59.9781C19.4775 60.2787 19.4077 60.4236 19.2227 60.8058C18.9581 61.3536 18.2207 62.8118 17.9659 63.2951C17.9193 63.3815 17.8519 63.5105 17.814 63.5811C17.6976 63.8015 17.6363 63.9183 17.444 64.275C17.1868 64.7533 17.199 64.7302 16.9381 65.2001C16.6061 65.8002 16.4224 66.1227 16.0781 66.7155C15.9912 66.8665 15.8086 67.1769 15.7168 67.3303L15.6408 67.4581L15.6886 67.5007C15.7155 67.5238 15.816 67.6151 15.914 67.7015C16.3182 68.0655 17.2002 68.825 17.553 69.1135C17.5702 69.1269 17.6033 69.1549 17.6265 69.1756C17.7833 69.3095 18.8172 70.1457 18.952 70.2456C18.9704 70.259 19.0684 70.3356 19.1713 70.416C19.3697 70.5706 19.5633 70.7203 19.8095 70.9077C19.8928 70.971 19.9614 71.0173 19.9638 71.01C19.9663 71.0027 20.0435 70.8907 20.1353 70.7629C20.2505 70.6022 20.3068 70.5316 20.3191 70.5365C20.3289 70.5401 20.4195 70.573 20.5224 70.6095C21.0553 70.7994 21.2905 70.8895 21.5845 71.0185C22.2595 71.3143 23.0717 71.727 23.7834 72.1359C25.1223 72.904 26.1587 73.6539 26.8961 74.3842C27.0921 74.579 27.3518 74.8638 27.3984 74.9356C27.4008 74.9381 27.4939 74.9101 27.6078 74.8735C27.8222 74.8029 27.9753 74.7567 28.0893 74.7263C28.126 74.7165 28.2252 74.6897 28.3098 74.6654C28.5229 74.607 28.9296 74.5096 29.057 74.4877C29.0876 74.4828 29.1844 74.4645 29.2714 74.4475C29.7173 74.3599 30.1497 74.3039 30.674 74.2686C31.0452 74.2418 31.877 74.26 32.095 74.299C32.1122 74.3026 32.1722 74.31 32.2298 74.3173C32.6328 74.3659 33.1375 74.4938 33.516 74.6423C33.9325 74.8066 34.2571 74.9892 34.6038 75.2582C35.0019 75.5662 35.5752 76.2149 35.9317 76.7578C36.287 77.2995 36.5614 77.9203 36.6777 78.4474C36.6863 78.4851 36.6961 78.5168 36.6998 78.5168C36.7035 78.5168 36.7267 78.5046 36.75 78.4912C36.8566 78.4267 37.191 78.2684 37.3748 78.1966C37.5622 78.1236 37.8513 78.0323 37.9848 78.0043C38.334 77.9337 38.5692 77.9069 38.857 77.9069C39.7929 77.9069 40.67 78.2441 41.5128 78.9318C41.7064 79.0889 42.1278 79.5052 42.2552 79.6646C42.7048 80.227 43.0245 80.8636 43.1935 81.5355C43.283 81.8934 43.3197 82.1089 43.354 82.4789C43.3761 82.7272 43.3601 83.359 43.3246 83.5927C43.3234 83.6049 43.3418 83.617 43.3773 83.628C43.5096 83.6682 43.7987 83.7765 43.9163 83.83C44.688 84.1818 45.2613 84.7223 45.6227 85.4405C45.8971 85.9858 46.0306 86.5616 46.0551 87.3053C46.0698 87.7374 46.027 88.6418 45.9669 89.1689L45.9596 89.2371L46.0184 89.2845C46.0515 89.3101 46.1495 89.3904 46.2377 89.461C46.599 89.7532 47.3585 90.3338 48.2124 90.968L49.1189 91.6423L48.9437 91.7275C48.8469 91.775 48.7673 91.8176 48.7673 91.8225C48.7673 91.8261 48.7967 91.8359 48.8322 91.8432C48.8665 91.8505 48.9621 91.8712 49.0429 91.8882C49.7865 92.0501 50.6268 92.1706 51.3765 92.2242C51.4807 92.2315 51.5946 92.24 51.6277 92.2424C51.7796 92.2571 52.8551 92.2607 53.0793 92.2485C53.4811 92.2254 53.9735 92.1694 53.9735 92.1475C53.9735 92.1426 53.9062 92.0927 53.8241 92.0379C53.4639 91.7994 53.0413 91.4938 52.5121 91.0909C52.3627 90.9777 51.6877 90.4251 51.6264 90.3667C51.6191 90.3606 51.5836 90.3301 51.5468 90.2997C51.4856 90.2486 51.3778 90.1549 51.3643 90.1415C51.3606 90.1378 51.281 90.066 51.1867 89.9832C50.5056 89.3795 49.6419 88.5371 48.8824 87.7374C48.4182 87.2481 47.6942 86.4569 47.1699 85.8641C46.9996 85.6705 46.8514 85.505 46.8134 85.4624C46.8073 85.4551 46.7436 85.3833 46.6738 85.3029L46.5464 85.1568L46.6676 85.2737C46.9151 85.5098 47.4688 86.0114 47.8485 86.3424C48.0066 86.48 48.1389 86.5956 48.1425 86.5993C48.1462 86.6042 48.2589 86.6991 48.3937 86.8123C48.5284 86.9255 48.6411 87.0217 48.6448 87.0253C48.6521 87.0338 48.9621 87.2895 49.1409 87.4343C51.221 89.1239 53.2471 90.4653 55.2132 91.45L55.5881 91.6387H55.8012C56.2092 91.6387 57.2884 91.5985 57.575 91.573C57.6057 91.5693 57.6743 91.5644 57.7282 91.5596C57.9707 91.5401 58.3921 91.4902 58.6592 91.4488C59.7862 91.2723 60.6179 90.9619 61.4264 90.4129C61.6506 90.2608 62.0487 89.9565 62.1749 89.8408C62.1884 89.8286 62.2582 89.7678 62.3317 89.7057C62.404 89.6436 62.4628 89.5901 62.4628 89.5876C62.4628 89.5852 62.4371 89.5682 62.4052 89.5487C61.9483 89.287 61.2145 88.7976 60.6559 88.3826C60.1524 88.0076 59.3452 87.3552 58.9164 86.9754C58.8968 86.9572 58.7559 86.8342 58.604 86.7028C58.3688 86.497 58.0981 86.256 57.9144 86.088C57.8874 86.0649 57.7037 85.8969 57.504 85.7168C57.2075 85.449 57.0924 85.3333 56.8731 85.0899C56.7249 84.9256 56.4872 84.6663 56.3451 84.5117C55.778 83.8982 55.4962 83.5951 55.4117 83.5075C55.3639 83.4576 55.1875 83.2677 55.0209 83.0875C54.8531 82.9062 54.6804 82.7199 54.6363 82.6724C54.5076 82.5361 54.3606 82.3754 54.1205 82.1076C53.9968 81.9701 53.8559 81.8143 53.8069 81.7607C53.6232 81.5574 53.0205 80.8575 52.8955 80.7005C52.8784 80.6798 52.7877 80.5678 52.6922 80.451C52.174 79.8131 51.7526 79.2422 51.3092 78.5776C51.1193 78.2916 51.0495 78.1832 50.8682 77.8899L50.7861 77.756L50.8878 77.8521C51.0752 78.0299 52.8367 79.7523 52.8441 79.7669C52.849 79.7742 53.1258 80.0541 53.459 80.3877C53.7922 80.7224 54.281 81.2142 54.5444 81.482C54.809 81.7486 55.0515 81.9944 55.0846 82.0285C55.1177 82.0614 55.4644 82.4156 55.8539 82.8136C57.8176 84.8185 57.9989 84.9974 58.5906 85.5038C58.6334 85.5403 58.6751 85.5768 58.6824 85.5829C58.6898 85.5902 58.8123 85.6912 58.9532 85.8093C60.406 87.0131 61.5391 87.7654 63.0569 88.5347L63.3877 88.7027L63.5959 88.7526C64.3076 88.9206 64.8797 89.0058 65.5155 89.0362C65.9038 89.0545 66.3509 89.0338 66.7013 88.9802C66.9463 88.9437 67.2538 88.8719 67.473 88.8013C68.0623 88.6114 68.5817 88.2986 69.0043 87.8774C69.6609 87.2237 70.0958 86.3047 70.2734 85.1946L70.2955 85.0619L70.2636 85.0363C70.2464 85.0217 70.1619 84.956 70.0762 84.8891C69.237 84.2366 67.609 82.9463 67.1607 82.5763C66.9585 82.4107 66.2836 81.8508 66.248 81.8204C66.2309 81.8058 66.0912 81.6853 65.9357 81.5526C65.7813 81.4199 65.6478 81.3055 65.6404 81.2982C65.6331 81.2921 65.5865 81.2507 65.5363 81.2069C65.3195 81.017 65.0892 80.8125 65.0782 80.8003C65.072 80.793 65.0414 80.765 65.0108 80.7395C64.9471 80.6835 64.7278 80.4826 64.5588 80.3244C63.8225 79.6342 63.1365 78.9416 62.72 78.4681C61.7364 77.3482 60.956 76.3708 60.0067 75.072C59.4811 74.3526 58.8062 73.3544 58.2451 72.467C57.7441 71.6758 56.9687 70.3563 56.6208 69.7063C56.5914 69.6515 56.6171 69.682 56.6624 69.755C56.8805 70.1092 57.3839 70.8238 57.7416 71.2863C58.5305 72.31 59.3023 73.1803 60.5898 74.4998C61.0185 74.9381 64.1606 78.0433 64.5943 78.4559C64.7658 78.6202 64.9618 78.8065 65.0292 78.871C65.1725 79.0073 65.4947 79.308 65.7458 79.5392C65.8438 79.6293 65.9871 79.762 66.0643 79.8338C66.2309 79.986 66.166 79.9288 66.7638 80.4644C67.0296 80.7029 67.3787 81.0121 67.5404 81.1521C67.7021 81.2921 67.8369 81.4102 67.8405 81.4138C67.8454 81.4199 68.2325 81.7498 68.3048 81.8094C68.3207 81.8228 68.3403 81.8398 68.3477 81.8459C68.355 81.8532 68.4469 81.9299 68.551 82.0163C68.6552 82.1028 68.7519 82.1831 68.7654 82.1953C69.4024 82.7321 70.5466 83.6158 71.2461 84.1124L71.4102 84.2293L71.6687 84.2208C72.3608 84.1977 72.9598 84.0492 73.5062 83.7643C74.7692 83.1058 75.6291 81.7656 75.8827 80.0554C75.928 79.751 75.9439 79.5088 75.9439 79.1315C75.9439 78.8199 75.9243 78.4547 75.9035 78.3792C75.8962 78.3537 75.8508 78.3269 75.6438 78.2234C75.2445 78.0262 75.0301 77.8887 74.5842 77.5442C74.3147 77.336 73.7794 76.8856 73.4278 76.5704C72.144 75.4201 70.4559 73.7561 68.5878 71.7976C68.4702 71.6746 68.3232 71.5212 68.2619 71.4567C68.2007 71.3934 67.9949 71.1743 67.8038 70.9698C67.6127 70.7653 67.4142 70.5547 67.364 70.5012C67.3126 70.4476 67.0578 70.1737 66.7993 69.8926C66.3877 69.4483 66.1537 69.1926 65.7409 68.7362C65.6858 68.6765 65.6086 68.5913 65.5682 68.5475C65.5277 68.5037 65.382 68.3418 65.2435 68.1884C65.1063 68.0338 64.99 67.906 64.9863 67.9024C64.9826 67.8987 64.8332 67.7319 64.6555 67.5311C64.4767 67.3303 64.3285 67.1635 64.3248 67.1598C64.3187 67.155 64.1949 67.015 63.6939 66.4417C63.6743 66.4185 63.6351 66.3747 63.6069 66.3443C63.4979 66.2238 62.7066 65.3048 62.3329 64.8653C61.8919 64.3456 61.5845 63.978 61.2451 63.5629C61.1569 63.4558 61.0822 63.3657 61.0773 63.362C61.0638 63.3499 60.3325 62.4381 60.1218 62.1691C59.8891 61.8721 59.6245 61.5264 59.4321 61.2708C59.2986 61.0931 59.3403 61.1247 58.9409 60.891C58.4387 60.5977 57.5199 59.9683 56.9674 59.5399C56.4872 59.1674 55.6812 58.5113 55.272 58.1607C55.0773 57.994 55.0846 58 54.9413 57.8795C54.8702 57.8211 54.7 57.6726 54.5615 57.5509C54.4231 57.4292 54.2418 57.2697 54.1573 57.1967C54.0728 57.1224 53.9882 57.0482 53.9674 57.0311C53.9478 57.0129 53.7824 56.868 53.5999 56.7098C53.4186 56.5503 53.2471 56.4006 53.2202 56.3762C53.1418 56.3044 52.6456 55.8808 52.4852 55.7469C51.6044 55.0166 50.9858 54.61 50.6428 54.5382C50.5827 54.526 50.5631 54.5285 50.3782 54.5735C50.0731 54.649 49.3577 54.8559 48.6325 55.0787C48.4941 55.1213 48.3618 55.1614 48.3385 55.1675C48.3153 55.1736 48.2467 55.1943 48.1854 55.2126C48.0347 55.2564 47.5901 55.3671 47.4247 55.4024C47.2887 55.4317 47.2875 55.4317 47.2728 55.4743C47.2336 55.5826 46.9004 56.2837 46.664 56.7524C46.4349 57.2076 46.1531 57.7408 45.9927 58.0183C45.7575 58.4297 45.6742 58.5697 45.5541 58.7694C44.4345 60.6196 43.267 62.034 42.091 62.9676C41.2507 63.6347 40.3907 64.0498 39.5614 64.1885C39.3029 64.2311 39.1755 64.2409 38.8926 64.2409C38.5728 64.2397 38.4173 64.2226 38.0914 64.1545C37.855 64.1045 37.6222 64.0461 36.4315 63.7394C34.9186 63.3499 34.1849 63.0236 33.663 62.51C33.2392 62.0937 33.0076 61.5958 32.9256 60.9275C32.9047 60.7583 32.9047 60.1521 32.9256 59.9598C32.9893 59.3755 33.1473 58.644 33.3494 57.994C33.3739 57.9173 33.418 57.77 33.4486 57.669C33.5013 57.4925 33.6385 57.0871 33.8345 56.5333C33.8823 56.3957 33.946 56.2156 33.9754 56.1316C34.1432 55.6508 34.3294 55.1383 34.8733 53.6727C35.4111 52.2218 35.6696 51.4695 35.8741 50.7635C36.0505 50.1537 36.0995 49.8871 36.1008 49.5231C36.1008 49.4002 36.1032 49.2955 36.1057 49.2919C36.1081 49.2882 36.1142 49.2346 36.1179 49.175C36.1449 48.8208 36.2527 48.1671 36.3151 47.9821C36.3237 47.9553 36.3482 47.8726 36.3703 47.7995C36.7537 46.4812 37.5401 45.4076 38.6022 44.7552C39.031 44.4923 39.3262 44.3705 40.3577 44.0297C41.2029 43.7509 42.1155 43.4685 42.7207 43.2981C42.8334 43.2665 42.8003 43.2567 42.5541 43.2482C42.4242 43.2446 42.2246 43.2348 42.1094 43.2275C41.9955 43.2214 41.6427 43.202 41.3254 43.1861C41.0094 43.1703 40.6504 43.1508 40.5292 43.1435C40.4079 43.1362 40.0661 43.1168 39.7697 43.1009C39.4732 43.0851 39.1449 43.0656 39.0408 43.0583C38.846 43.0462 38.2029 43.006 37.8403 42.9853C37.7288 42.9792 37.5965 42.9707 37.5463 42.967C37.496 42.9634 37.24 42.9476 36.9767 42.9305C36.1926 42.8806 34.5769 42.7686 34.3306 42.7479C34.2976 42.7455 34.1836 42.737 34.0795 42.7297C33.9754 42.7224 33.7904 42.709 33.6691 42.6992C33.5479 42.6895 33.369 42.6761 33.271 42.6688C33.0517 42.653 33.0187 42.6506 32.6524 42.6201C32.4907 42.6067 32.2873 42.5909 32.1991 42.5836C32.0129 42.5702 31.9811 42.5666 31.6173 42.5349C31.4654 42.5215 31.273 42.5057 31.1885 42.4984C31.104 42.4923 31.0084 42.4838 30.9741 42.4801C30.9411 42.4777 30.8161 42.4655 30.6985 42.4558C30.5809 42.4461 30.4535 42.4339 30.4168 42.4302C30.32 42.4217 30.113 42.4022 29.9574 42.3889C29.8839 42.3815 29.77 42.3718 29.7063 42.3645C29.5054 42.345 29.4588 42.3402 29.3204 42.328C29.2469 42.3219 29.1636 42.3134 29.1366 42.3097C29.1097 42.3073 28.9994 42.2951 28.8916 42.2854C28.7838 42.2744 28.6736 42.2635 28.6466 42.2598C28.6197 42.2574 28.5376 42.2489 28.4641 42.2416C28.3502 42.2318 28.2216 42.2184 27.8381 42.1758C27.8051 42.1722 27.7499 42.1661 27.7156 42.1624C27.6201 42.1527 27.1387 42.0991 27.0235 42.0845C26.9659 42.0772 26.8067 42.0578 26.6683 42.0419C26.5298 42.0261 26.373 42.0066 26.3191 41.9993C26.1256 41.9738 25.8512 41.9385 25.7495 41.9263C25.6919 41.9202 25.6344 41.9117 25.6209 41.9093C25.6074 41.9068 25.5645 41.9007 25.5266 41.8971C25.4604 41.8886 25.4555 41.8898 25.4506 41.9166Z" fill="#AAAAAA"/>
<path d="M79.6066 42.3547C79.4658 42.4143 79.184 42.53 78.9819 42.6091C78.7798 42.6894 78.5899 42.7661 78.5593 42.7783C78.4576 42.8197 77.5033 43.1776 77.1934 43.2895C77.0255 43.3504 76.8381 43.4198 76.7769 43.4417C76.7168 43.4636 76.5098 43.5403 76.3175 43.6109C75.5715 43.8848 75.0092 44.0954 74.4984 44.2913C74.1541 44.424 73.4571 44.704 73.4473 44.7125C73.4412 44.7186 73.4914 44.7515 73.5576 44.7868C74.796 45.4465 75.6462 46.2341 76.2489 47.2809C76.4179 47.573 76.4596 47.6595 76.9484 48.7489C77.2583 49.4403 77.5584 50.1037 77.6503 50.3009C77.6699 50.3447 77.7642 50.5553 77.861 50.7695C77.9566 50.9838 78.046 51.1834 78.0595 51.2126C78.1513 51.4135 78.4723 52.1511 78.6462 52.5589C78.7614 52.8267 78.868 53.0762 78.8839 53.1127C79.0689 53.54 79.5148 54.6635 79.6875 55.1395C79.8847 55.6787 80.0746 56.2386 80.1763 56.5758C80.2106 56.689 80.3196 57.0213 80.4176 57.3123C80.5156 57.6032 80.7104 58.1814 80.8512 58.5964C80.9909 59.0115 81.1918 59.6031 81.2971 59.9111C81.8741 61.5957 82.4229 63.2378 82.7083 64.1349C83.2486 65.833 83.5879 66.9967 83.8635 68.0959C83.9431 68.4123 84.035 68.7994 84.0595 68.9236C84.0656 68.954 84.0828 69.0319 84.0963 69.0952C84.1759 69.464 84.2396 69.8122 84.2861 70.1165C84.3658 70.6509 84.389 70.9321 84.3988 71.5029L84.4062 71.9704L84.2359 72.1408C83.7986 72.579 83.18 73.1596 82.7598 73.5284C82.6422 73.6307 82.2882 73.9314 82.1608 74.0373C82.0762 74.1066 82.0027 74.1675 81.9966 74.1724C81.9917 74.1772 82.0027 74.1991 82.0223 74.2223C82.3849 74.6288 82.5662 74.8102 82.8468 75.0488C83.5609 75.6574 84.3486 76.0652 85.2257 76.2819C85.4695 76.3427 85.8003 76.4012 86.0134 76.4231C86.0881 76.4304 86.1972 76.4413 86.2572 76.4474C86.4042 76.4632 87.2127 76.4608 87.3977 76.4462C87.5398 76.434 88.0469 76.3768 88.0959 76.3671C88.1094 76.3646 88.1596 76.3561 88.2062 76.35C88.2919 76.3379 88.483 76.3038 88.6533 76.2697C88.935 76.2149 89.5904 76.0518 89.8477 75.9727C89.8881 75.9605 89.9714 75.9362 90.0314 75.9179C90.6794 75.7219 91.5847 75.3896 92.4018 75.0476C92.5329 74.9928 92.6848 74.9295 92.7387 74.9076C92.8367 74.8674 93.214 74.7043 93.5043 74.5765C93.5888 74.5388 93.6795 74.4986 93.7064 74.4876C93.7701 74.4596 93.998 74.3574 94.0629 74.3282C94.1131 74.3063 94.2356 74.2515 94.6987 74.0458C94.8273 73.9886 94.9621 73.9289 94.9988 73.9119C95.2328 73.806 95.92 73.5065 96.1319 73.4165C96.5815 73.2266 97.2957 72.9405 97.4574 72.8845L97.5591 72.8504V72.775C97.5591 72.7336 97.5542 72.6971 97.548 72.6934C97.5431 72.6898 97.5346 72.6557 97.5309 72.6167C97.5199 72.5108 97.4415 72.1359 97.3802 71.8888C97.2871 71.52 97.1965 71.2157 97.0384 70.7446C96.6317 69.5273 96.0523 68.1372 95.2193 66.3808C94.6742 65.2317 93.8032 63.5068 93.2103 62.4064C93.1846 62.359 93.0743 62.1545 92.9653 61.95C92.855 61.7455 92.6811 61.4229 92.5757 61.2318C92.4716 61.0407 92.3675 60.8496 92.343 60.8058C92.2903 60.7084 92.0061 60.1971 91.9179 60.0389C91.8824 59.9756 91.7611 59.7589 91.6484 59.5581C90.7027 57.8734 89.5439 55.9027 88.3899 54.0196C86.4642 50.8779 84.5177 47.9285 82.9582 45.791C82.1571 44.6918 81.4062 43.7424 80.8647 43.1435C80.7104 42.9743 80.2571 42.5275 80.1579 42.4484C80.0525 42.3632 79.8823 42.2427 79.8712 42.2439C79.8676 42.2439 79.7487 42.2938 79.6066 42.3547Z" fill="#AAAAAA"/>
<path d="M19.9859 72.4657C19.9785 72.4791 19.932 72.5546 19.8818 72.6337C19.1921 73.7171 19.0941 75.1583 19.6061 76.6725C19.7078 76.972 19.8156 77.2264 19.9749 77.5368C20.2419 78.0602 20.5371 78.4838 20.8728 78.8258C21.44 79.4004 22.0488 79.8009 22.5964 79.9591C22.7985 80.0175 22.9418 80.0394 23.1525 80.0467C23.5163 80.0589 23.7834 80.0102 24.1203 79.8702C24.1778 79.8471 24.2317 79.8216 24.2403 79.8155C24.2587 79.8009 24.2587 79.7996 24.2317 79.9189C24.1815 80.138 24.1754 80.2172 24.1754 80.6164C24.1754 80.9974 24.184 81.1325 24.2256 81.432C24.3959 82.648 24.8994 83.92 25.6344 84.9973C25.7936 85.2286 25.9063 85.3649 26.0705 85.5231C26.2861 85.7301 26.471 85.8591 26.7356 85.9857C27.4033 86.3046 28.1824 86.3399 29.166 86.094C29.792 85.9382 30.5736 85.612 31.2363 85.231C31.3122 85.1872 31.3759 85.1507 31.3772 85.1507C31.3784 85.1507 31.3796 85.2894 31.3796 85.4574C31.3808 85.9626 31.4164 86.2949 31.5082 86.671C31.6883 87.4014 32.0766 88.0648 32.6806 88.6722C33.3163 89.3124 34.1469 89.6825 35.231 89.8079C35.5728 89.8468 36.1498 89.8432 36.5295 89.8006C36.8603 89.7628 37.2253 89.6825 37.4826 89.5936L37.5463 89.5705L37.5144 89.6216C37.4385 89.7433 37.3527 89.9685 37.327 90.1134C37.3196 90.1523 37.3111 90.2035 37.3062 90.2266C37.2976 90.2741 37.2964 90.6575 37.3049 90.6952C37.3086 90.7086 37.3147 90.75 37.3196 90.7865C37.3674 91.159 37.5744 91.6654 37.8488 92.0829C38.1098 92.4797 38.5275 92.9496 38.7982 93.1516C39.0163 93.3135 39.2747 93.4474 39.5504 93.5412C39.7047 93.5935 39.973 93.6604 40.1004 93.6787C40.1347 93.6824 40.1727 93.6884 40.1861 93.6921C40.338 93.7237 41.1465 93.7432 41.3621 93.7201C41.4234 93.714 41.5336 93.703 41.6071 93.6957C42.8248 93.5752 44.5961 93.0177 46.2303 92.2399C46.3332 92.19 46.4226 92.1498 46.4287 92.1498C46.4606 92.1498 46.4287 92.1121 46.3442 92.0512C45.9939 91.7981 44.9832 91.0166 44.6574 90.7488C44.5998 90.7001 44.2727 90.4189 44.2188 90.3714L44.16 90.3179L44.1784 90.2327C44.2274 89.999 44.2764 89.5875 44.3107 89.0945C44.3328 88.7939 44.3315 87.7763 44.3095 87.6095C44.176 86.5712 43.6994 85.864 42.8689 85.4684C42.4769 85.2809 42.0726 85.1835 41.552 85.1482L41.3376 85.1336L41.3817 85.0484C41.5361 84.7551 41.6414 84.2012 41.6488 83.6522C41.6598 82.8099 41.454 82.0369 41.0461 81.3808C40.8048 80.9962 40.4262 80.5945 40.0024 80.2756C39.5614 79.9457 39.0322 79.7071 38.6083 79.6487C38.5569 79.6414 38.503 79.6329 38.4871 79.6292C38.4711 79.6268 38.3731 79.6207 38.269 79.6171C37.6014 79.5927 36.9791 79.7887 36.2478 80.2549C35.8778 80.491 35.4699 80.8343 34.986 81.3163L34.6981 81.6036L34.7569 81.4819C35.0375 80.9049 35.1293 80.2452 35.0228 79.5866C34.8794 78.7126 34.3735 77.8216 33.5601 77.0121C33.2649 76.7176 33.0591 76.5679 32.7234 76.3999C32.2567 76.1686 31.6663 76.0189 31.0415 75.9763C30.8602 75.9641 30.1975 75.9641 30.0064 75.9763C29.8447 75.986 29.5985 76.0103 29.4674 76.0274C29.4478 76.031 29.3841 76.0383 29.3265 76.0457C29.1722 76.0651 28.7446 76.1394 28.5486 76.1808C27.7977 76.3402 26.9953 76.5861 26.438 76.8271C26.362 76.86 26.2946 76.8831 26.2885 76.8795C26.2824 76.8758 26.2714 76.8527 26.2628 76.8271C26.2211 76.6969 26.0582 76.4303 25.9026 76.238C25.2252 75.3981 23.7675 74.333 21.9581 73.3555C21.3297 73.0159 20.5457 72.6459 20.1329 72.4937C20.079 72.473 20.0263 72.4536 20.0165 72.4499C20.0055 72.445 19.9932 72.4511 19.9859 72.4657Z" fill="#AAAAAA"/>
</svg>
